# xmcd CD database file
#
# Track frame offsets:
#	150
#	20538
#	39361
#	62157
#	94065
#	113400
#	134402
#	157810
#	182856
#	204583
#	228102
#	246251
#	273212
#	295636
#	327818
#
# Disc length: 4642 seconds
#
# Revision: 1
# Processed by: cddbd v1.5.2PL0 Copyright (c) Steve Scherf et al.
# Submitted via: CDex 1.70beta3
#
DISCID=c312200f
DTITLE=谷村新司 - BEST COLLECTION ～いい日旅立ち～
DYEAR=2008
DGENRE=Pop
TTITLE0=いい日旅立ち
TTITLE1=三都物語
TTITLE2=陽はまた昇る
TTITLE3=サライ
TTITLE4=22歳
TTITLE5=忘れていいの -愛の幕切れ-
TTITLE6=チャンピオン
TTITLE7=帰らざる日々
TTITLE8=遠くで汽笛を聞きながら
TTITLE9=狂った果実
TTITLE10=終止符
TTITLE11=祇園祭
TTITLE12=天狼
TTITLE13=群青
TTITLE14=昴 -すばる-
EXTD=YEAR: 2008
EXTT0=
EXTT1=
EXTT2=
EXTT3=
EXTT4=
EXTT5=
EXTT6=
EXTT7=
EXTT8=
EXTT9=
EXTT10=
EXTT11=
EXTT12=
EXTT13=
EXTT14=
PLAYORDER=
